Coordinates
version=1
nRows=60
nColumns=12
inDegrees=yes

Units are S.I. units (second, meters, Newtons, ...)
Angles are in degrees

endheader
time	SC_y	SC_z	SC_x	AC_y	AC_z	AC_x	GH_y	GH_z	GH_yy	EL_x	PS_y
       0.0              -19.33           16.6          51.87           65.6          2.361          2.179         -118.7          14.01          88.52          22.92          94.33
   0.02867              -19.33           16.6          51.87           65.6          2.361          2.179         -118.7          14.02           88.5          22.93          94.33
   0.05734              -19.33           16.6          51.87           65.6           2.36          2.179         -118.6          14.03          88.49          22.93          94.33
   0.08601              -19.33           16.6          51.87           65.6           2.36          2.179         -118.6          14.04          88.47          22.93          94.33
    0.1147              -19.33          16.59          51.87          65.59          2.359          2.179         -118.5          14.05          88.46          22.93          94.33
    0.1434              -19.33          16.59          51.87          65.59          2.358          2.179         -118.5          14.06          88.44          22.93          94.34
     0.172              -19.33          16.59          51.87          65.59          2.357          2.179         -118.5          14.07          88.42          22.93          94.34
    0.2007              -19.33          16.58          51.88          65.59          2.357          2.179         -118.4          14.08           88.4          22.93          94.34
    0.2294              -19.33          16.58          51.88          65.58          2.356          2.179         -118.3          14.09          88.38          22.93          94.34
     0.258              -19.33          16.58          51.88          65.58          2.355          2.179         -118.3          14.11          88.36          22.93          94.34
    0.2867              -19.33          16.57          51.88          65.58          2.354          2.179         -118.2          14.12          88.33          22.93          94.34
    0.3154              -19.32          16.57          51.88          65.58          2.353          2.179         -118.2          14.14          88.31          22.94          94.34
    0.3441              -19.32          16.56          51.89          65.57          2.351          2.179         -118.1          14.15          88.28          22.94          94.34
    0.3727              -19.32          16.56          51.89          65.57           2.35          2.179         -118.0          14.17          88.25          22.94          94.34
    0.4014              -19.32          16.55          51.89          65.56          2.349          2.179         -117.9          14.19          88.21          22.94          94.34
    0.4301              -19.32          16.55          51.89          65.56          2.347          2.179         -117.8          14.21          88.18          22.94          94.35
    0.4587              -19.32          16.54           51.9          65.56          2.345          2.179         -117.7          14.24          88.14          22.94          94.35
    0.4874              -19.32          16.53           51.9          65.55          2.344          2.179         -117.6          14.26           88.1          22.95          94.35
    0.5161              -19.31          16.52           51.9          65.54          2.342          2.179         -117.5          14.29          88.05          22.95          94.35
    0.5447              -19.31          16.51          51.91          65.54           2.34          2.179         -117.4          14.32           88.0          22.95          94.35
    0.5734              -19.31          16.51          51.91          65.53          2.337          2.179         -117.2          14.35          87.94          22.96          94.36
    0.6021              -19.31          16.49          51.91          65.52          2.335          2.179         -117.0          14.39          87.88          22.96          94.36
    0.6308               -19.3          16.48          51.92          65.52          2.332          2.179         -116.9          14.43          87.81          22.96          94.36
    0.6594               -19.3          16.47          51.92          65.51          2.329          2.179         -116.7          14.47          87.74          22.97          94.36
    0.6881               -19.3          16.46          51.93           65.5          2.325          2.179         -116.5          14.52          87.65          22.97          94.37
    0.7168              -19.29          16.44          51.94          65.49          2.321          2.179         -116.2          14.58          87.56          22.98          94.37
    0.7454              -19.29          16.42          51.95          65.47          2.317          2.179         -115.9          14.64          87.46          22.98          94.38
    0.7741              -19.28           16.4          51.95          65.46          2.312          2.179         -115.6          14.71          87.34          22.99          94.38
    0.8028              -19.28          16.38          51.96          65.44          2.306          2.179         -115.3          14.79          87.21           23.0          94.39
    0.8315              -19.27          16.35          51.98          65.43            2.3          2.179         -114.9          14.87          87.05           23.0          94.39
    0.8601              -19.26          16.32          51.99          65.41          2.293          2.179         -114.4          14.98          86.88          23.01           94.4
    0.8888              -19.26          16.29           52.0          65.38          2.284          2.179         -113.9          15.09          86.68          23.02          94.41
    0.9175              -19.25          16.25          52.02          65.35          2.275          2.178         -113.3          15.23          86.46          23.04          94.42
    0.9461              -19.24           16.2          52.04          65.32          2.264          2.178         -112.6          15.38          86.19          23.05          94.43
    0.9748              -19.22          16.15          52.06          65.29           2.25          2.178         -111.8          15.57          85.88          23.07          94.44
     1.003              -19.21          16.09          52.09          65.24          2.235          2.178         -110.9          15.78          85.52          23.09          94.45
     1.032              -19.19          16.01          52.12          65.19          2.217          2.178         -109.7          16.04          85.08          23.11          94.47
     1.061              -19.17          15.92          52.16          65.13          2.195          2.178         -108.4          16.34          84.56          23.14          94.49
     1.089              -19.14          15.81           52.2          65.05          2.168          2.177         -106.7          16.72          83.93          23.17          94.52
     1.118              -19.11          15.68          52.26          64.96          2.136          2.177         -104.7          17.17          83.16          23.21          94.55
     1.147              -19.07          15.51          52.33          64.85          2.096          2.177         -102.2          17.73          82.21          23.27          94.59
     1.176              -19.02          15.31          52.42          64.71          2.046          2.176         -99.11          18.43          81.02          23.33          94.64
     1.204              -18.95          15.05          52.53          64.53          1.983          2.175          -95.2          19.31          79.53          23.41           94.7
     1.233              -18.87          14.72          52.67           64.3          1.903          2.174         -90.24          20.43          77.63          23.51          94.77
     1.262              -18.77           14.3          52.85          64.01          1.801          2.173         -83.88          21.86           75.2          23.64          94.87
      1.29              -18.64          13.76          53.07          63.64           1.67          2.172         -75.73          23.69          72.08          23.81           95.0
     1.319              -18.47          13.08          53.37          63.16          1.502           2.17         -65.31          26.04           68.1          24.03          95.16
     1.348              -18.26          12.21          53.74          62.56          1.291          2.168         -52.21          28.99          63.09           24.3          95.37
     1.376               -18.0          11.15          54.18          61.83          1.034          2.165         -36.25          32.59          56.99          24.63          95.61
     1.405               -17.7          9.932           54.7          60.99         0.7367          2.162         -17.75          36.75          49.91          25.01           95.9
     1.434              -17.38          8.608          55.27          60.07         0.4143          2.158          2.281          41.27          42.25          25.42          96.21
     1.462              -17.05          7.284          55.83          59.16        0.09195          2.155          22.31          45.78          34.59          25.84          96.52
     1.491              -16.75          6.061          56.35          58.31        -0.2058          2.151          40.82          49.94          27.52          26.22          96.81
      1.52               -16.5          5.006           56.8          57.58        -0.4626          2.149          56.78          53.54          21.42          26.55          97.06
     1.548              -16.29           4.14          57.16          56.99        -0.6734          2.146          69.87          56.49          16.41          26.82          97.26
     1.577              -16.12          3.452          57.46          56.51        -0.8411          2.145          80.29          58.84          12.42          27.03          97.43
     1.606              -15.98          2.913          57.69          56.14        -0.9723          2.143          88.45          60.67          9.305           27.2          97.55
     1.634              -15.88          2.493          57.86          55.85         -1.075          2.142           94.8           62.1          6.876          27.33          97.65
     1.663               -15.8          2.165           58.0          55.62         -1.154          2.141          99.76          63.22          4.977          27.44          97.73
     1.692              -15.74          1.906          58.11          55.44         -1.217           2.14          103.7           64.1          3.484          27.52          97.79
